<?xml version="1.0" encoding="utf-8"?>
<!-- Generator: Adobe Illustrator 23.0.1, SVG Export Plug-In . SVG Version: 6.00 Build 0)  -->
<svg version="1.1" id="Camada_1" xmlns="http://www.w3.org/2000/svg" xmlns:xlink="http://www.w3.org/1999/xlink" x="0px" y="0px"
	 viewBox="0 0 307 374" style="enable-background:new 0 0 307 374;" xml:space="preserve">
<style type="text/css">
	.st0{opacity:0.25;}
	.st1{fill:#0D1117;}
	.st2{fill:#00AC99;}
	.st3{fill:#D2FCF5;}
	.st4{fill:#00DD80;}
	.st5{fill:#FFFFFF;}
	.st6{fill:#0D0B6D;}
	.st7{fill:#78849E;}
	.st8{fill:none;}
	.st9{fill:#101016;}
	.st10{fill:#05CBB5;}
	.st11{opacity:9.900000e-02;}
	.st12{opacity:9.900000e-02;fill:#FFFFFF;enable-background:new    ;}
	.st13{fill:#EFEFEF;}
	.st14{fill:#5E93D1;}
	.st15{opacity:0.201;fill:none;stroke:#000000;stroke-width:5;enable-background:new    ;}
	.st16{opacity:0.36;fill:#21262D;}
</style>
<g class="st0">
	<path class="st1" d="M269.9,132.9c1.6,7.1,2.6,14.4,3,21.7c1.8,34.2-10.1,67.8-33,93.3s-55.1,40.8-89.3,42.6
		c-34.2,1.8-67.8-10.1-93.3-33s-40.8-55.1-42.6-89.3c-0.9-17,1.6-33.9,7.2-49.9S36.3,87.6,47.7,75s25.1-22.9,40.4-30.2
		S120,33.3,137,32.4c7.3-0.4,14.6-0.2,21.8,0.7c6.6-7.5,14.6-13.5,23.5-17.8S201,8.5,210.9,8c19.8-1,39.2,5.8,53.9,19.1
		s23.6,31.8,24.6,51.6c0.5,9.9-0.9,19.8-4.3,29.2C281.8,117,276.6,125.6,269.9,132.9z"/>
</g>
<path class="st2" d="M163.7,84.3c0,5.7-3.7,10.3-8.2,10.3s-8.2-4.6-8.2-10.3S151,74,155.6,74C160.1,74,163.7,78.6,163.7,84.3z"/>
<path class="st3" d="M144.5,125.7l-0.3-11.8c0,0,14.4,1.1,17.4-0.5c0,0,3.8-19.3-0.7-30l-0.1-0.4l-30.3-3.5l-1.9,17.2
	c-1-3-9.3-6.2-11.5-1.9c-4.8,9.3,12.3,15.6,12.3,15.6l-1.7,15.5"/>
<path class="st2" d="M144.1,113.9l-9.7-2.1l9.6,6.5L144.1,113.9z"/>
<path class="st4" d="M152.1,94.7l3.3,8.2l-4,0.1L152.1,94.7z"/>
<path class="st4" d="M148.3,97c0.1,0.4,0,0.8-0.1,1.2c-0.2,0.4-0.4,0.7-0.8,0.9c-0.3,0.2-0.7,0.3-1.1,0.3c-0.4,0-0.8-0.1-1.1-0.4
	c-0.3-0.2-0.6-0.5-0.7-0.9c-0.1-0.4-0.2-0.8-0.1-1.2c0.1-0.4,0.3-0.7,0.6-1s0.7-0.5,1-0.5s0.5,0,0.8,0c0.3,0.1,0.5,0.2,0.7,0.3
	c0.2,0.2,0.4,0.3,0.5,0.6C148.2,96.5,148.3,96.7,148.3,97"/>
<path class="st4" d="M158.8,97c0.1,0.4,0,0.8-0.1,1.2c-0.2,0.4-0.4,0.7-0.8,0.9c-0.3,0.2-0.7,0.3-1.1,0.3c-0.4,0-0.8-0.1-1.1-0.4
	c-0.3-0.2-0.6-0.5-0.7-0.9c-0.1-0.4-0.2-0.8-0.1-1.2c0.1-0.4,0.3-0.7,0.6-1s0.7-0.5,1-0.5s0.5,0,0.8,0c0.3,0.1,0.5,0.2,0.7,0.3
	c0.2,0.2,0.4,0.3,0.5,0.6C158.7,96.5,158.8,96.7,158.8,97z"/>
<path class="st5" d="M148,105.2c0.5,0.7,1.1,1.2,1.8,1.6s1.5,0.5,2.4,0.5"/>
<path class="st4" d="M148,105.2c0.5,0.7,1.1,1.2,1.8,1.6s1.5,0.5,2.4,0.5"/>
<path class="st6" d="M173.3,351.5l2.4,7.8c0,0,18.9-7.8,28.6-4.8l-32.8,19l-8.5-21.4L173.3,351.5z M85,328.1l-10.6,9.7
	c1,4.1,1.7,8.3,2.2,12.6c0.6,5.6,0.7,11.2,0.4,16.8l-18.4-32.1l22.7-16.8L85,328.1z"/>
<path class="st7" d="M173.3,351.5l2.4,7.8c0,0,18.9-7.8,28.6-4.8l-32.8,19l-8.5-21.4L173.3,351.5z M85,328.1l-10.6,9.7
	c1,4.1,1.7,8.3,2.2,12.6c0.6,5.6,0.7,11.2,0.4,16.8l-18.4-32.1l22.7-16.8L85,328.1z"/>
<path class="st3" d="M163.6,353.7l10.1-0.9l2,6.5l-8.4,3.5L163.6,353.7z M81.1,318.3l1.2,12.3l-7.9,7.2l-6.3-9.7L81.1,318.3z"/>
<rect x="63.4" y="324.2" class="st8" width="1" height="1"/>
<path class="st9" d="M122.3,237.2l-13.5-43.8h52.7c0,16.5-2.7,32.8-7.9,48.4l21.2,99.8c0.1,0.6,0.1,1.2-0.1,1.8
	c-0.2,0.6-0.5,1.1-1,1.5l3.2,11.4l-13.2,3.8l-3.1-10.7h-0.1c-0.4,0.1-0.9,0.2-1.4,0.2s-0.9-0.2-1.3-0.4c-0.4-0.2-0.8-0.5-1.1-0.9
	s-0.5-0.8-0.7-1.2L135.1,279c-2.4,3.5-4.9,6.9-7.7,10.4C109.7,311.2,98.7,323,93,328.7c-1,1-2.2,1.5-3.6,1.6
	c-1.3,0.1-2.7-0.3-3.7-1.1l-8.1,6.7l-8-11.1l8-6.6c-0.6-1-0.9-2.2-0.8-3.4c0.1-1.2,0.6-2.3,1.4-3.2
	C86.3,302.8,109.3,275,122.3,237.2L122.3,237.2z"/>
<path class="st2" d="M122.3,237.2l-13.5-43.8h52.7c0,16.5-2.7,32.8-7.9,48.4l21.2,99.8c0.1,0.6,0.1,1.2-0.1,1.8
	c-0.2,0.6-0.5,1.1-1,1.5l3.2,11.4l-13.2,3.8l-3.1-10.7h-0.1c-0.4,0.1-0.9,0.2-1.4,0.2s-0.9-0.2-1.3-0.4c-0.4-0.2-0.8-0.5-1.1-0.9
	s-0.5-0.8-0.7-1.2L135.1,279c-2.4,3.5-4.9,6.9-7.7,10.4C109.7,311.2,98.7,323,93,328.7c-1,1-2.2,1.5-3.6,1.6
	c-1.3,0.1-2.7-0.3-3.7-1.1l-8.1,6.7l-8-11.1l8-6.6c-0.6-1-0.9-2.2-0.8-3.4c0.1-1.2,0.6-2.3,1.4-3.2
	C86.3,302.8,109.3,275,122.3,237.2L122.3,237.2z"/>
<path class="st10" d="M122.3,237.2l-13.5-43.8h34.5c0,0,17,28.3,10.3,48.4l21.2,99.8c0.1,0.6,0.1,1.2-0.1,1.8
	c-0.2,0.6-0.5,1.1-1,1.5l3.2,11.4l-13.2,3.8l-3.1-10.7h-0.1c-0.4,0.1-0.9,0.2-1.4,0.2s-0.9-0.2-1.3-0.4c-0.4-0.2-0.8-0.5-1.1-0.9
	s-0.5-0.8-0.7-1.2L135.1,279c-9.9-30.8-2.4-11.5-6.4-19.3C125.9,254.3,129,261.3,122.3,237.2L122.3,237.2z"/>
<g class="st11">
	<path class="st12" d="M160.7,349.6L160.7,349.6c-0.5,0.2-1,0.2-1.5,0.2s-0.9-0.2-1.3-0.4c-0.4-0.2-0.8-0.5-1.1-0.9
		s-0.5-0.8-0.7-1.2l-20.9-68.1l-12.9-42l-13.5-43.8h34.5l10.3,48.4l21.2,99.8c0.1,0.6,0.1,1.2-0.1,1.8c-0.2,0.6-0.5,1.1-1,1.5
		l3.2,11.4l-13.2,3.8L160.7,349.6z"/>
</g>
<path class="st13" d="M167.7,347l-5.5,2L140,271.9l-13.7-47.6l-8.9-30.8h11.3l2,7.8l15.2,59.8L167.7,347z"/>
<rect x="117.1" y="193.4" class="st8" width="1" height="1"/>
<path class="st3" d="M197.8,149.4c-4.4,8.6-19.8,36.9-30.8,32.4c-8.2-3.4-18.1-31.4-18.1-31.4l16-9.5l7.2,19.2l14.7-15.9
	c-0.5-3.2-0.9-7.3,0.1-8.7c1.7-2.5,10.2-10.1,10.2-10.1l1.6,12.9l0.3-1.1c0-0.1,0-0.1,0-0.2l0,0l0.6-2.5l0.3-1.3l2.1-8.6
	c0,0,0.7,0.3,1.7,0.8c1.7-0.3,7.7,3.8,7.8,3.8c1.2,0.8-1.7,13.9-4.1,16.3C206,147.2,200.7,148.7,197.8,149.4L197.8,149.4z
	 M99.9,207.8l1,1.9c0.7,1.3,1.3,2.7,1.8,4.2c0.9,2.7,0.5,4.3,2.5,8.4c2.3,4.7-1.8,2.8-3.3,0.7c-1.1-1.6-1-3.8-2.5-4.8
	c-0.5,0.8-1.6,1.9-2.3,8.7c0,1.7,0.2,3.5,0.4,5.2c0,1.2,0.2,3.7-1.2,4c-0.3,0.1-0.8-0.3-0.8-0.3c0,0.4-0.1,0.8-0.3,1.2
	c-0.2,0.3-0.6,0.6-1,0.7c-0.5,0.1-1.6-3.2-1.6-3.2s-0.2,1.7-1.2,1.9c-0.3,0.1-3.7-9.7-3.7-9.7l0.2,2.2l0.5,2.2c0,0,0,1.2-1,1.4
	c-0.4,0.1-1.1-1.9-1.8-4.3c-0.9-3-1.2-6.1-0.7-9.2c0.4-3.3,0.2-4.5,1.7-8.5c0.2-0.5,0.4-1.1,0.7-1.6c-0.8-7-3.1-27.6-2.8-33.9
	c0.3-7.7,8.5-24.7,8.5-24.7l16.5,9.2l-9.1,16.5L99.9,207.8L99.9,207.8z M139.3,131.6c-9.5-0.6-13.6-6.5-14.5-8.1
	c6.1-0.4,6.7-0.4,14.8,0.5c2.6,0.3,5.2,0.9,7.8,1.6C147.8,127.3,148.5,132.2,139.3,131.6L139.3,131.6z"/>
<path class="st3" d="M99.9,207.8l1,1.9c0.7,1.3,1.3,2.7,1.8,4.2c0.9,2.7,0.5,4.3,2.6,8.4c2.3,4.7-1.8,2.8-3.3,0.7
	c-1.1-1.6-1-3.8-2.5-4.8c-0.5,0.8-1.6,1.9-2.3,8.7c0,1.7,0.2,3.5,0.4,5.2c0,1.2,0.2,3.7-1.2,4c-0.3,0.1-0.8-0.3-0.8-0.3
	c0,0.4-0.1,0.8-0.3,1.2c-0.2,0.3-0.6,0.6-1,0.7c-0.5,0.1-1.6-3.2-1.6-3.2s-0.2,1.7-1.2,1.9c-0.3,0.1-3.7-9.7-3.7-9.7l0.2,2.2
	l0.5,2.2c0,0,0,1.2-1,1.4c-0.4,0.1-1.1-1.9-1.8-4.3c-0.9-3-1.2-6.1-0.7-9.2c0.4-3.3,0.2-4.5,1.7-8.5c0.2-0.5,0.4-1.1,0.7-1.6
	c-0.8-7-3.1-27.6-2.8-33.9c0.3-7.7,8.5-24.7,8.5-24.7l16.5,9.2l-9.1,16.5L99.9,207.8L99.9,207.8z"/>
<path class="st14" d="M166.5,140.7L166.5,140.7l6.6,14.9l-9.3,5.4l-1.9,32.6H109l-0.9-32.2L91.3,149c0,0,7.9-15.8,21.4-22.1
	c3.8-1.8,7.9-2.9,12.1-3.4c0.3,0,0.1,0,0.1,0.1s0.1,0.2,0.2,0.3c0.1,0.1,0.1,0.1,0.5,0.7c0.6,0.8,1.3,1.5,2,2.2
	c0.9,0.8,1.8,1.6,2.9,2.2c1,0.5,2.1,1,3.1,1.4c0.6,0.2,1.2,0.4,1.8,0.6c1.7,0.4,3.5,0.6,5.3,0.6c0.3,0,2.1-0.1,2.4-0.2
	c0.4-0.1,0.8-0.2,1.3-0.3c1-0.3,1.9-0.9,2.5-1.7c0.5-0.9,0.7-1.9,0.6-2.9c-0.1-1-0.6-1-0.1-0.9c7.3,2,14.2,6.1,18.2,13.4
	C165.9,139.6,166.2,140.1,166.5,140.7z"/>
<path class="st4" d="M166.5,140.7L166.5,140.7l6.6,14.9l-9.3,5.4l-1.9,32.6H109l-0.9-32.2L91.3,149c0,0,7.9-15.8,21.4-22.1
	c3.8-1.8,7.9-2.9,12.1-3.4c0.3,0,0.1,0,0.1,0.1s0.1,0.2,0.2,0.3c0.1,0.1,0.1,0.1,0.5,0.7c0.6,0.8,1.3,1.5,2,2.2
	c0.9,0.8,1.8,1.6,2.9,2.2c1,0.5,2.1,1,3.1,1.4c0.6,0.2,1.2,0.4,1.8,0.6c1.7,0.4,3.5,0.6,5.3,0.6c0.3,0,2.1-0.1,2.4-0.2
	c0.4-0.1,0.8-0.2,1.3-0.3c1-0.3,1.9-0.9,2.5-1.7c0.5-0.9,0.7-1.9,0.6-2.9c-0.1-1-0.6-1-0.1-0.9c7.3,2,14.2,6.1,18.2,13.4
	C165.9,139.6,166.2,140.1,166.5,140.7z"/>
<path class="st15" d="M108.1,161.5l4.2,2.9l10.2-11.8"/>
<path class="st2" d="M130.9,99.2c-0.9-1.7-2.2-3.2-3.7-4.4c-1.5-1.2-3.3-2-5.2-2.5c-0.8-2.4-1.4-4.8-1.7-7.3
	c-1.1-7.1,4.1-13.6,8.3-15.5c4.2-1.9,11.5-4.5,22.2-1c7.2,2.4,11.7-3.3,16-0.9c7.2,4.2,0.5,22.5-17.8,17.8
	c-13.1-3.3-13.4-2.5-13.5-0.1C135,93.2,133.8,97.8,130.9,99.2z"/>
<path class="st4" d="M225.8,103.6c20.4,0,36.9-16.5,36.9-36.9s-16.5-36.9-36.9-36.9s-36.9,16.5-36.9,36.9
	C188.9,87.1,205.4,103.6,225.8,103.6z"/>
<path class="st4" d="M195.6,80.8l-8.6,19.7l18.3-6.7L195.6,80.8z"/>
<g>
	<path class="st16" d="M249.6,58.2c-0.5-1.1-1.2-2.2-2.1-3.1c-1.8-1.8-4.3-2.9-6.9-2.9c-2.6,0-5.1,1-6.9,2.9L221.8,67l-3.7-3.7
		c-1.8-1.8-4.3-2.9-6.9-2.9c-2.6,0-5.1,1-6.9,2.9c-1.8,1.9-2.9,4.3-2.9,6.9c0,2.6,1,5.1,2.9,6.9l9.6,9.6c0.3,0.3,0.6,0.7,0.9,1
		c1.8,1.8,4.3,2.9,6.9,2.9s5.1-1,6.9-2.9L247.5,69c0.9-0.9,1.6-2,2.1-3.2s0.7-2.5,0.7-3.8S250,59.4,249.6,58.2z M247.4,65.1
		c-0.4,0.9-1,1.7-1.6,2.4l-14.4,14.4l-4.5,4.5c-1.4,1.4-3.2,2.1-5.2,2.1c-1.9,0-3.8-0.8-5.2-2.1l-0.2-0.2c-1.4-1.4-2.1-3.2-2.1-5.2
		c0-1.9,0.8-3.8,2.1-5.2l7.1-7.1l11.8-11.8c1.4-1.4,3.2-2.1,5.2-2.1c1.9,0,3.8,0.8,5.2,2.1l0.2,0.2c0.7,0.7,1.2,1.5,1.6,2.4
		c0.4,0.9,0.6,1.8,0.6,2.8S247.8,64.2,247.4,65.1z"/>
	<circle class="st16" cx="221.7" cy="80.9" r="5.8"/>
</g>
</svg>
